<svg preserveAspectRatio="none" width="100%" height="100%" overflow="visible" style="display: block;" viewBox="0 0 154.054 30" fill="none" xmlns="http://www.w3.org/2000/svg">
<g id="CometChat horizontal logo 3" clip-path="url(#clip0_0_2349)">
<path id="Vector" fill-rule="evenodd" clip-rule="evenodd" d="M0.000236511 7.05881V26.5586C0.000236511 28.4607 1.54404 30 3.44842 30H26.6114C28.5172 30 30.0596 28.4593 30.0596 26.5586V3.44138C30.0596 1.53934 28.5158 0 26.6114 0H12.5986V3.43948C12.5986 5.34005 11.1436 6.88073 9.23953 6.88073H8.49321L5.92939 9.96183L6.18893 7.05881H0.000236511ZM22.0544 9.96455C21.6229 9.216 21.063 8.59055 20.3747 8.08814C19.6863 7.58569 18.9055 7.21144 18.0322 6.96534C17.1589 6.71925 16.2497 6.5962 15.3045 6.5962C14.0099 6.5962 12.8593 6.81155 11.8524 7.24219C10.8456 7.67283 9.99289 8.27269 9.29425 9.04172C8.5956 9.81075 8.06651 10.7233 7.70693 11.7794C7.34734 12.8355 7.16755 13.9788 7.16755 15.2093C7.16755 16.3987 7.36275 17.4907 7.75315 18.4853C8.14359 19.4799 8.68808 20.3361 9.38673 21.0539C10.0853 21.7716 10.933 22.3304 11.9295 22.7303C12.9261 23.1302 14.0202 23.3302 15.212 23.3302C17.3284 23.3302 19.0647 22.7765 20.4209 21.669C21.7771 20.5617 22.599 18.9518 22.8867 16.8396H18.6641C18.5202 17.8239 18.1658 18.6083 17.6007 19.1928C17.0357 19.7773 16.2292 20.0695 15.1812 20.0695C14.5031 20.0695 13.9278 19.9157 13.4552 19.6081C12.9826 19.3005 12.6076 18.9057 12.3302 18.4238C12.0528 17.9419 11.8524 17.4036 11.7291 16.8089C11.6059 16.2141 11.5442 15.6297 11.5442 15.0555C11.5442 14.4608 11.6059 13.8609 11.7291 13.256C11.8524 12.651 12.0631 12.0973 12.361 11.5949C12.659 11.0925 13.0442 10.6823 13.5168 10.3644C13.9894 10.0466 14.575 9.88762 15.2737 9.88762C17.1435 9.88762 18.2223 10.8002 18.51 12.6254H22.7942C22.7325 11.6 22.486 10.713 22.0544 9.96455Z" fill="var(--fill-0, white)"/>
<path id="Vector_2" fill-rule="evenodd" clip-rule="evenodd" d="M46.9256 14.3688H49.0969C49.0147 13.6048 48.8174 12.9446 48.5046 12.3882C48.1923 11.8318 47.7935 11.3709 47.3079 11.0055C46.8228 10.6401 46.2636 10.3702 45.6304 10.1958C44.9971 10.0214 44.3186 9.93417 43.5949 9.93417C42.5915 9.93417 41.7115 10.1127 40.9549 10.4698C40.1983 10.8269 39.5691 11.3169 39.0674 11.9398C38.5658 12.5626 38.1916 13.2934 37.9449 14.1322C37.6981 14.9709 37.5748 15.872 37.5748 16.8353C37.5748 17.7987 37.7022 18.6831 37.9572 19.4887C38.2122 20.2942 38.5904 20.9876 39.0921 21.569C39.5938 22.1503 40.2188 22.5987 40.9672 22.9143C41.7157 23.2299 42.5751 23.3877 43.5455 23.3877C45.1739 23.3877 46.461 22.9558 47.407 22.0921C48.3524 21.2285 48.9405 19.9994 49.1711 18.4049H47.0242C46.8928 19.4015 46.535 20.1738 45.9511 20.7219C45.3672 21.27 44.5571 21.544 43.5209 21.544C42.8629 21.544 42.2954 21.4112 41.8184 21.1454C41.3414 20.8797 40.9549 20.5267 40.6588 20.0866C40.3628 19.6464 40.1448 19.144 40.005 18.5793C39.8652 18.0146 39.7953 17.4333 39.7953 16.8353C39.7953 16.1876 39.8611 15.5606 39.9927 14.9543C40.1243 14.3481 40.3422 13.8124 40.6465 13.3474C40.9508 12.8823 41.3579 12.5086 41.8678 12.2263C42.3777 11.9439 43.0109 11.8027 43.7676 11.8027C44.6558 11.8027 45.3631 12.027 45.8894 12.4754C46.4158 12.9239 46.7612 13.555 46.9256 14.3688ZM52.6589 16.6859C52.6589 15.9052 52.7618 15.2118 52.9675 14.6055C53.1732 13.9993 53.4569 13.4886 53.8185 13.0733C54.1807 12.6581 54.6038 12.3425 55.089 12.1266C55.5747 11.9107 56.0885 11.8027 56.6314 11.8027C57.1739 11.8027 57.6882 11.9107 58.1734 12.1266C58.6586 12.3425 59.0822 12.6581 59.4438 13.0733C59.806 13.4886 60.0897 13.9993 60.2949 14.6055C60.5006 15.2118 60.6035 15.9052 60.6035 16.6859C60.6035 17.4665 60.5006 18.1599 60.2949 18.7661C60.0897 19.3724 59.806 19.879 59.4438 20.2859C59.0822 20.6928 58.6586 21.0043 58.1734 21.2202C57.6882 21.4361 57.1739 21.544 56.6314 21.544C56.0885 21.544 55.5747 21.4361 55.089 21.2202C54.6038 21.0043 54.1807 20.6928 53.8185 20.2859C53.4569 19.879 53.1732 19.3724 52.9675 18.7661C52.7618 18.1599 52.6589 17.4665 52.6589 16.6859ZM50.4383 16.6859C50.4383 17.6326 50.5698 18.5129 50.8333 19.3267C51.0963 20.1405 51.4913 20.8506 52.0173 21.4568C52.5438 22.0631 53.1934 22.5365 53.9665 22.8769C54.7396 23.2174 55.6277 23.3877 56.6314 23.3877C57.6511 23.3877 58.5435 23.2174 59.3081 22.8769C60.0732 22.5365 60.7186 22.0631 61.2451 21.4568C61.7716 20.8506 62.1661 20.1405 62.4291 19.3267C62.6926 18.5129 62.8241 17.6326 62.8241 16.6859C62.8241 15.7391 62.6926 14.8547 62.4291 14.0325C62.1661 13.2104 61.7716 12.4962 61.2451 11.8899C60.7186 11.2837 60.0732 10.8061 59.3081 10.4574C58.5435 10.1086 57.6511 9.93417 56.6314 9.93417C55.6277 9.93417 54.7396 10.1086 53.9665 10.4574C53.1934 10.8061 52.5438 11.2837 52.0173 11.8899C51.4913 12.4962 51.0963 13.2104 50.8333 14.0325C50.5698 14.8547 50.4383 15.7391 50.4383 16.6859ZM64.436 10.2015V23.2053H66.5332V15.0914C66.5332 14.8422 66.5952 14.5308 66.7182 14.1571C66.8417 13.7834 67.039 13.4221 67.3105 13.0733C67.5819 12.7245 67.9356 12.4256 68.3715 12.1764C68.8073 11.9273 69.3296 11.8027 69.9383 11.8027C70.415 11.8027 70.8058 11.8733 71.1102 12.0145C71.4145 12.1557 71.6569 12.355 71.8377 12.6124C72.019 12.8699 72.1463 13.173 72.2205 13.5218C72.2942 13.8706 72.3313 14.2526 72.3313 14.6678V23.2053H74.4284V15.0914C74.4284 14.0948 74.7248 13.2975 75.3166 12.6996C75.9088 12.1017 76.7233 11.8027 77.7594 11.8027C78.2694 11.8027 78.6846 11.8775 79.0054 12.027C79.3262 12.1764 79.577 12.3799 79.7578 12.6373C79.9387 12.8948 80.0622 13.1979 80.128 13.5467C80.1937 13.8955 80.2266 14.2692 80.2266 14.6678V23.2053H82.3237V13.6713C82.3237 13.0069 82.2208 12.438 82.0151 11.9647C81.8099 11.4913 81.522 11.1051 81.1519 10.8061C80.7817 10.5072 80.3374 10.2871 79.8194 10.146C79.3013 10.0048 78.7217 9.93417 78.0802 9.93417C77.2413 9.93417 76.4725 10.1252 75.7731 10.5072C75.0742 10.8892 74.5106 11.429 74.0832 12.1266C73.8197 11.3294 73.3674 10.7647 72.7263 10.4325C72.0847 10.1002 71.3689 9.93417 70.5794 9.93417C68.7867 9.93417 67.4133 10.665 66.4594 12.1266H66.4101V10.2015H64.436ZM93.9538 15.4402H86.6259C86.6588 14.9419 86.7659 14.4727 86.9467 14.0325C87.1276 13.5923 87.3746 13.2062 87.6869 12.874C87.9993 12.5418 88.3736 12.2802 88.8095 12.0892C89.2453 11.8982 89.7347 11.8027 90.2777 11.8027C90.8037 11.8027 91.2851 11.8982 91.721 12.0892C92.1568 12.2802 92.5349 12.5377 92.8557 12.8616C93.1765 13.1854 93.4316 13.5716 93.6208 14.0201C93.8096 14.4685 93.921 14.9419 93.9538 15.4402ZM95.9767 19.0277H93.9045C93.7237 19.8748 93.3494 20.506 92.782 20.9212C92.2141 21.3364 91.4866 21.544 90.5985 21.544C89.9076 21.544 89.3073 21.4278 88.7973 21.1952C88.2872 20.9627 87.8678 20.6513 87.539 20.261C87.2097 19.8706 86.9716 19.4222 86.8232 18.9156C86.6753 18.409 86.6095 17.8734 86.6259 17.3087H96.1745C96.2073 16.528 96.1374 15.7059 95.9645 14.8422C95.7917 13.9785 95.4793 13.1813 95.027 12.4505C94.5747 11.7197 93.9745 11.1176 93.2258 10.6442C92.4776 10.1708 91.5359 9.93417 90.4007 9.93417C89.529 9.93417 88.7273 10.1002 87.9955 10.4325C87.2633 10.7647 86.6302 11.2297 86.0957 11.8276C85.5612 12.4256 85.1455 13.1315 84.8496 13.9453C84.5537 14.7592 84.4053 15.6561 84.4053 16.636C84.4382 17.616 84.5824 18.5212 84.8374 19.3516C85.0924 20.1821 85.4748 20.8963 85.9844 21.4942C86.4944 22.0921 87.1238 22.5572 87.872 22.8894C88.6202 23.2216 89.5046 23.3877 90.5242 23.3877C91.9718 23.3877 93.1723 23.0223 94.1267 22.2915C95.0806 21.5607 95.6973 20.4727 95.9767 19.0277ZM100.871 10.2015V6.5625H98.7741V10.2015H96.6028V12.0592H98.7741V20.3859C98.7741 20.9838 98.8319 21.4655 98.947 21.8309C99.062 22.1963 99.2386 22.4786 99.4772 22.6779C99.7158 22.8773 100.028 23.0143 100.415 23.089C100.801 23.1637 101.266 23.2012 101.809 23.2012H103.413V21.3326H102.45C102.122 21.3326 101.854 21.3202 101.649 21.2952C101.443 21.27 101.283 21.2163 101.168 21.1333C101.052 21.0503 100.974 20.934 100.933 20.7845C100.892 20.635 100.871 20.4357 100.871 20.1866V12.0592H103.413V10.2015H100.871ZM113.785 14.7675H117.214C117.164 13.937 116.967 13.2187 116.622 12.6124C116.276 12.0062 115.828 11.4996 115.277 10.9927C114.726 10.6858 114.101 10.3826 113.402 10.1833C112.703 9.984 111.975 9.88434 111.218 9.88434C110.182 9.88434 109.261 10.0588 108.455 10.4076C107.649 10.7564 106.967 11.2422 106.407 11.865C105.848 12.4879 105.424 13.227 105.137 14.0823C104.849 14.9377 104.705 15.8637 104.705 16.8602C104.705 17.8236 104.861 18.708 105.173 19.5135C105.486 20.3191 105.922 21.0126 106.481 21.5939C107.04 22.1752 107.719 22.6278 108.517 22.9517C109.315 23.2755 110.191 23.4375 111.144 23.4375C112.839 23.4375 114.228 22.989 115.314 22.0921C116.4 21.1952 117.058 19.8915 117.288 18.1807H113.908C113.793 18.9779 113.509 19.6132 113.057 20.0866C112.604 20.5599 111.958 20.7966 111.12 20.7966C110.577 20.7966 110.116 20.6721 109.738 20.4229C109.36 20.1738 109.06 19.854 108.837 19.4637C108.615 19.0734 108.455 18.6374 108.356 18.1558C108.258 17.6741 108.209 17.2007 108.209 16.7357C108.209 16.254 108.258 15.7682 108.356 15.2782C108.455 14.7882 108.624 14.3398 108.862 13.9328C109.101 13.5259 109.409 13.1938 109.788 12.9363C110.166 12.6788 110.634 12.5501 111.194 12.5501C112.691 12.5501 113.554 13.2893 113.785 14.7675ZM118.876 6.5625V23.2053H122.38V16.362C122.38 15.0498 122.593 14.1073 123.021 13.5342C123.449 12.9612 124.139 12.6747 125.094 12.6747C125.933 12.6747 126.517 12.9363 126.845 13.4595C127.175 13.9827 127.339 14.7757 127.339 15.8388V23.2133H130.842V15.191C130.842 14.3938 130.772 13.6671 130.633 13.011C130.493 12.355 130.25 11.7986 129.905 11.3418C129.56 10.8851 129.087 10.5279 128.486 10.2705C127.886 10.0131 127.117 9.88434 126.179 9.88434C125.521 9.88434 124.847 10.0546 124.156 10.3951C123.465 10.7356 122.898 11.2795 122.454 12.027H122.38V6.5625H118.876ZM133.065 14.1945C133.115 13.364 133.32 12.6747 133.682 12.1266C134.044 11.5785 134.504 11.1383 135.063 10.8061C135.623 10.474 136.252 10.2373 136.951 10.0961C137.65 9.95494 138.353 9.88434 139.06 9.88434C139.702 9.88434 140.352 9.93005 141.009 10.0214C141.667 10.1127 142.268 10.2913 142.811 10.557C143.354 10.8228 143.797 11.1923 144.143 11.6657C144.488 12.1391 144.661 12.766 144.661 13.5467V20.2485C144.661 20.8298 144.694 21.3863 144.76 21.9178C144.825 22.4492 145.107 22.9475 145.272 23.2133H141.719C141.653 23.014 141.433 22.7108 141.392 22.5032C141.351 22.2956 141.322 22.0838 141.306 21.8679C140.746 22.4492 140.088 22.8562 139.332 23.0887C138.575 23.3213 137.802 23.4375 137.012 23.4375C136.404 23.4375 135.836 23.3628 135.31 23.2133C134.784 23.0638 134.323 22.8313 133.929 22.5157C133.534 22.2001 133.225 21.8015 133.003 21.3198C132.781 20.8381 132.67 20.2651 132.67 19.6008C132.67 18.87 132.798 18.2679 133.053 17.7945C133.308 17.3212 133.636 16.9433 134.039 16.6609C134.442 16.3785 134.903 16.1668 135.421 16.0256C135.939 15.8844 136.461 15.7723 136.988 15.6893C137.514 15.6062 138.033 15.5398 138.542 15.49C139.052 15.4402 139.505 15.3654 139.9 15.2657C140.294 15.1661 140.606 15.0208 140.837 14.8298C141.067 14.6387 141.174 14.3605 141.158 13.9951C141.158 13.6131 141.096 13.31 140.973 13.0858C140.849 12.8616 140.685 12.6871 140.479 12.5626C140.273 12.438 140.035 12.355 139.764 12.3135C139.492 12.2719 139.2 12.2512 138.888 12.2512C138.197 12.2512 137.654 12.4006 137.259 12.6996C136.864 12.9986 136.634 13.4969 136.569 14.1945H133.065ZM141.158 16.8104C141.009 16.9433 140.824 17.0471 140.603 17.1218C140.38 17.1966 140.142 17.2589 139.887 17.3087C139.632 17.3585 139.365 17.4 139.085 17.4332C138.806 17.4665 138.526 17.508 138.246 17.5578C137.983 17.6077 137.724 17.6741 137.469 17.7571C137.214 17.8402 136.992 17.9523 136.803 18.0935C136.614 18.2347 136.461 18.4132 136.346 18.6291C136.231 18.8451 136.174 19.1191 136.174 19.4513C136.174 19.7669 136.231 20.0326 136.346 20.2485C136.461 20.4645 136.618 20.6347 136.815 20.7592C137.012 20.8838 137.243 20.971 137.506 21.0209C137.769 21.0707 138.041 21.0956 138.32 21.0956C139.011 21.0956 139.546 20.9793 139.924 20.7468C140.302 20.5143 140.582 20.2361 140.763 19.9122C140.944 19.5883 141.055 19.2603 141.096 18.9281C141.137 18.5959 141.158 18.3301 141.158 18.1308V16.8104ZM151.489 10.2779V6.5625H147.985V10.2779H145.863V12.6H147.985V20.1987C147.985 20.8465 148.092 21.3697 148.306 21.7683C148.52 22.1669 148.812 22.4742 149.182 22.6901C149.552 22.906 149.98 23.0513 150.465 23.1261C150.95 23.2008 151.464 23.2382 152.007 23.2382C152.352 23.2382 152.706 23.2299 153.068 23.2133C153.429 23.1967 153.759 23.1635 154.055 23.1136V20.3731C153.89 20.4063 153.717 20.4312 153.537 20.4478C153.356 20.4645 153.166 20.4728 152.969 20.4728C152.377 20.4728 151.982 20.3731 151.785 20.1738C151.587 19.9745 151.489 19.5758 151.489 18.9779V12.6H154.055V10.2779H151.489Z" fill="var(--fill-0, white)"/>
</g>
<defs>
<clipPath id="clip0_0_2349">
<rect width="154.054" height="30" fill="white"/>
</clipPath>
</defs>
</svg>
